<svg width="75" height="50" viewBox="0 0 75 50" fill="none" xmlns="http://www.w3.org/2000/svg">
<rect x="0.5" y="0.5" width="74" height="49" rx="4.5" stroke="#E1E1E1"/>
<g clip-path="url(#clip0_223_647)">
<path fill-rule="evenodd" clip-rule="evenodd" d="M22.627 17.5132C22.612 17.5132 22.5968 17.5132 22.5816 17.5132C20.5617 17.5132 18.6173 17.9811 16.7335 18.9241C15.9693 20.7351 15.538 22.5761 15.5153 24.4549C15.4851 26.3186 15.871 28.2276 16.7258 30.1742C18.6929 31.0268 20.66 31.4645 22.627 31.4871C24.5941 31.4645 26.5612 31.0268 28.5284 30.1742C29.3832 28.2276 29.7691 26.3186 29.7388 24.4549C29.7161 22.5761 29.2848 20.7351 28.5207 18.9241C26.6369 17.9811 24.6924 17.5132 22.6724 17.5132C22.6574 17.5132 22.6422 17.5132 22.627 17.5132Z" fill="#FEFEFE"/>
<path d="M16.4158 18.509C18.3979 17.498 20.4558 17 22.5817 17C22.5969 17 22.6121 17 22.6271 17C22.6423 17 22.6575 17 22.6725 17C24.7985 17 26.8563 17.498 28.8386 18.509L28.9596 18.6373C29.7692 20.5387 30.2307 22.478 30.2534 24.4472C30.2534 24.4849 30.2534 24.5151 30.2534 24.5528V24.6886C30.2457 26.5826 29.8373 28.5141 28.9596 30.4759L28.8234 30.6042C26.758 31.5171 24.6925 31.9774 22.6271 32C20.5618 31.9774 18.4962 31.5171 16.4309 30.6042L16.2947 30.4759C15.4171 28.5141 15.0085 26.5826 15.001 24.6886V24.5528C15.001 24.5151 15.001 24.4849 15.001 24.4472C15.0237 22.478 15.4852 20.5387 16.2947 18.6373L16.4158 18.509ZM22.6271 17.513C22.6121 17.513 22.5969 17.513 22.5817 17.513C20.5618 17.513 18.6174 17.981 16.7336 18.924C15.9694 20.7349 15.5381 22.576 15.5154 24.4547C15.4852 26.3184 15.8711 28.2274 16.7259 30.1741C18.693 31.0267 20.6601 31.4643 22.6271 31.487C24.5942 31.4643 26.5613 31.0267 28.5285 30.1741C29.3833 28.2274 29.7692 26.3184 29.7389 24.4547C29.7162 22.576 29.2849 20.7349 28.5208 18.924C26.637 17.981 24.6925 17.513 22.6725 17.513C22.6575 17.513 22.6423 17.513 22.6271 17.513Z" fill="#003399"/>
<path fill-rule="evenodd" clip-rule="evenodd" d="M22.7636 28.6877C22.6577 27.2464 22.7258 25.7449 22.2945 24.3718C21.8936 23.089 20.3728 22.3571 20.3426 20.9461C20.3124 19.8445 21.1521 18.5694 22.7258 18.5694C24.2011 18.5619 25.1166 19.6332 25.2224 20.8254C25.3511 22.2063 23.6714 23.1343 23.2326 24.4472C22.7787 25.7902 22.9073 27.2767 22.7636 28.6877Z" fill="#003399"/>
<path fill-rule="evenodd" clip-rule="evenodd" d="M23.3458 28.3408C23.2853 27.0883 23.2853 25.8886 23.6333 24.8246C24.0191 23.6174 24.8211 22.5988 26.0468 22.2667C26.8866 22.0405 28.1198 23.0213 27.923 24.0249C27.7566 24.8323 26.947 25.7829 25.6457 25.8886C25.0405 25.9414 24.7832 26.4243 24.405 26.7035C26.0997 26.5375 27.1967 25.8735 27.9609 25.1793C28.0744 25.7678 28.15 26.7562 27.6885 27.0958C26.7806 27.7371 25.9408 27.2165 24.874 27.5183C24.2763 27.6919 23.9056 28.0691 23.3458 28.3408Z" fill="#003399"/>
<path fill-rule="evenodd" clip-rule="evenodd" d="M22.1887 28.3408C22.2568 27.0883 22.2492 25.8886 21.9087 24.8246C21.523 23.6174 20.7209 22.5988 19.4954 22.2667C18.6555 22.0405 17.4148 23.0213 17.6191 24.0249C17.7855 24.8323 18.5951 25.7829 19.8964 25.8886C20.4941 25.9414 20.7588 26.4243 21.1371 26.7035C19.4348 26.5375 18.3454 25.8735 17.5812 25.1793C17.4677 25.7678 17.3921 26.7562 17.8536 27.0958C18.7615 27.7371 19.6013 27.2165 20.668 27.5183C21.2657 27.6919 21.6288 28.0691 22.1887 28.3408Z" fill="#003399"/>
<path fill-rule="evenodd" clip-rule="evenodd" d="M26.2206 30.2043V30.0005L26.372 29.9627L26.2206 29.7364V29.3591L26.9014 30.3023L26.6594 30.3627L26.493 30.1287L26.2206 30.2043ZM26.2206 29.3591V29.7364L26.1147 29.5855L26.0693 30.0382L26.2206 30.0005V30.2043L26.0466 30.2419L26.0163 30.5211L25.7742 30.5815L25.9331 29.3515L26.1752 29.2912L26.2206 29.3591ZM23.966 30.8606V30.6645H24.0189C24.1022 30.6569 24.1551 30.6494 24.1778 30.6419C24.2081 30.6343 24.2384 30.6116 24.2535 30.589C24.2762 30.5588 24.2838 30.5287 24.2838 30.4909C24.2762 30.4532 24.2686 30.423 24.2459 30.4004C24.2308 30.3777 24.2005 30.3627 24.1703 30.3551C24.14 30.3476 24.072 30.3476 23.966 30.3551V30.159C24.0266 30.159 24.0643 30.1514 24.0795 30.1514C24.1174 30.1439 24.1476 30.1212 24.1703 30.0986C24.193 30.0759 24.2005 30.0458 24.193 30.008C24.193 29.9702 24.1778 29.9401 24.1551 29.925C24.14 29.9025 24.1097 29.8873 24.0643 29.8873C24.0493 29.8873 24.0189 29.8873 23.966 29.8948V29.6987C24.0493 29.6911 24.1097 29.6911 24.1476 29.6987C24.193 29.6987 24.2384 29.7137 24.2762 29.7364C24.314 29.7515 24.3443 29.7816 24.3746 29.8194C24.3973 29.8572 24.4124 29.9025 24.42 29.9552C24.4275 30.008 24.4124 30.0608 24.3897 30.1061C24.367 30.1514 24.3292 30.1891 24.2762 30.2193C24.3519 30.2344 24.4124 30.2645 24.4502 30.3098C24.4956 30.3551 24.5183 30.4079 24.5259 30.4758C24.5259 30.5287 24.5183 30.5815 24.5032 30.6343C24.4805 30.6872 24.4502 30.7248 24.4124 30.7626C24.367 30.7927 24.3216 30.8154 24.2611 30.8305C24.2232 30.838 24.1249 30.8455 23.9812 30.8606H23.966ZM25.396 30.2269L25.6305 30.257C25.6153 30.3854 25.5775 30.4909 25.5094 30.5663C25.4413 30.6343 25.3429 30.6872 25.2219 30.7097C25.0707 30.7323 24.9345 30.7022 24.821 30.6193C24.6999 30.5287 24.6318 30.4004 24.594 30.2193C24.5637 30.0307 24.5864 29.8722 24.6696 29.7515C24.7453 29.6308 24.8664 29.5554 25.0253 29.5251C25.169 29.5025 25.2825 29.5251 25.3883 29.593C25.4489 29.6308 25.5018 29.6911 25.5397 29.7816L25.3202 29.8722C25.2975 29.8194 25.2598 29.7741 25.2144 29.7515C25.1613 29.7214 25.1084 29.7137 25.048 29.7214C24.9647 29.7364 24.9041 29.7816 24.8587 29.8496C24.8134 29.925 24.8058 30.0232 24.8285 30.159C24.8587 30.3023 24.9041 30.4004 24.9647 30.4532C25.0253 30.5061 25.1009 30.5287 25.184 30.5136C25.2446 30.4984 25.29 30.4683 25.3279 30.423C25.3656 30.3777 25.3883 30.3098 25.396 30.2269ZM23.966 29.6987V29.8948C23.9358 29.8948 23.9054 29.9025 23.8677 29.9025L23.7315 29.9175L23.7542 30.1816L23.9131 30.1665C23.9281 30.1665 23.9508 30.1665 23.966 30.159V30.3551C23.966 30.3551 23.966 30.3551 23.9585 30.3551L23.7769 30.3702L23.7996 30.6795L23.966 30.6645V30.8606L23.5878 30.8984L23.4818 29.744L23.9433 29.7062C23.9508 29.6987 23.9585 29.6987 23.966 29.6987ZM22.5058 30.4608V30.2645C22.5587 30.2645 22.5891 30.257 22.6118 30.2494C22.642 30.2419 22.6647 30.2193 22.6874 30.1966C22.7026 30.1665 22.7101 30.1364 22.7101 30.1061C22.7177 30.0608 22.7026 30.0307 22.6799 30.0005C22.6572 29.9702 22.6269 29.9552 22.5891 29.9476C22.5664 29.9476 22.5437 29.9401 22.5058 29.9401V29.744C22.6193 29.744 22.6874 29.7515 22.7253 29.7665C22.7934 29.7816 22.8463 29.8194 22.8917 29.8798C22.9371 29.9401 22.9598 30.0155 22.9522 30.1061C22.9522 30.174 22.9371 30.2344 22.9144 30.2872C22.8841 30.3325 22.8539 30.3702 22.8161 30.4004C22.7707 30.423 22.7328 30.4382 22.6874 30.4532C22.642 30.4608 22.5814 30.4608 22.5058 30.4608ZM22.5058 29.744V29.9401C22.4831 29.9401 22.4529 29.9401 22.415 29.9401L22.3015 29.9326V30.2645H22.4227C22.4529 30.2645 22.4831 30.2645 22.5058 30.2645V30.4608C22.4908 30.4608 22.4681 30.4608 22.4454 30.4608H22.294L22.2865 30.8984L22.052 30.8908L22.0747 29.7364L22.4454 29.744C22.4681 29.744 22.4908 29.744 22.5058 29.744ZM20.3194 30.3476V29.993C20.3875 30.008 20.4329 30.008 20.4556 30.008C20.4858 30.0005 20.5085 29.993 20.5312 29.9702C20.5464 29.9476 20.5614 29.925 20.5691 29.8873C20.5766 29.8496 20.5691 29.8194 20.5539 29.7891C20.5387 29.759 20.5085 29.744 20.4708 29.7289C20.4556 29.7214 20.4027 29.7137 20.3194 29.6987V29.5025L20.4177 29.5176C20.5387 29.5403 20.622 29.5629 20.6749 29.593C20.728 29.6232 20.7657 29.6684 20.7884 29.7289C20.8111 29.7816 20.8186 29.8496 20.8036 29.9175C20.7884 30.0005 20.7507 30.0684 20.6901 30.1137C20.6372 30.159 20.5539 30.1816 20.4481 30.1816C20.4935 30.2193 20.5312 30.257 20.5539 30.2947C20.5841 30.3401 20.6145 30.4079 20.6522 30.5061L20.7507 30.755L20.4783 30.7022L20.3573 30.423C20.3421 30.4004 20.3346 30.3702 20.3194 30.3476ZM20.9852 29.6308L21.2122 29.6534L21.1591 30.2797C21.1516 30.3777 21.1516 30.4457 21.1516 30.4683C21.1591 30.5211 21.1818 30.5588 21.2122 30.589C21.2499 30.6268 21.2953 30.6419 21.3634 30.6494C21.4315 30.6569 21.4845 30.6419 21.5148 30.6193C21.5526 30.5966 21.5753 30.5663 21.5904 30.5287C21.598 30.4909 21.6055 30.423 21.6131 30.3325L21.6661 29.6911L21.9006 29.7137L21.8477 30.3175C21.84 30.4608 21.825 30.5588 21.8023 30.6116C21.7871 30.6645 21.7569 30.7173 21.7266 30.7475C21.6888 30.7852 21.6358 30.8154 21.5753 30.8305C21.5223 30.8531 21.4467 30.8531 21.3559 30.8455C21.2424 30.838 21.1591 30.8154 21.1062 30.7852C21.0533 30.755 21.0079 30.7173 20.9775 30.6795C20.9473 30.6343 20.9321 30.589 20.9246 30.5437C20.9171 30.4758 20.9171 30.3777 20.9246 30.2494L20.9852 29.6308ZM19.1468 29.9702L19.1922 29.7816L19.6839 29.91L19.5627 30.3551C19.5023 30.3929 19.4267 30.4155 19.3207 30.423C19.2224 30.4305 19.1316 30.423 19.0408 30.4004C18.9198 30.3702 18.8214 30.3175 18.7533 30.2494C18.6776 30.174 18.6322 30.0834 18.6095 29.9854C18.5944 29.8798 18.5944 29.7741 18.6247 29.6684C18.6549 29.5554 18.7079 29.4572 18.7836 29.3743C18.8517 29.2987 18.9425 29.2535 19.0483 29.231C19.1316 29.2083 19.2299 29.2158 19.3359 29.246C19.4721 29.2837 19.5779 29.3365 19.6385 29.4196C19.6989 29.495 19.7293 29.593 19.7216 29.6987L19.4871 29.6836C19.4871 29.6232 19.4721 29.5704 19.4342 29.5251C19.3963 29.4873 19.3509 29.4497 19.2828 29.4346C19.1845 29.4119 19.1014 29.4196 19.0256 29.4647C18.95 29.51 18.8971 29.6007 18.8592 29.7214C18.8214 29.8572 18.829 29.9627 18.8668 30.0458C18.9122 30.1287 18.9802 30.1816 19.071 30.2043C19.1241 30.2193 19.1695 30.2193 19.2224 30.2193C19.2753 30.2118 19.3207 30.1966 19.3661 30.1816L19.404 30.0382L19.1468 29.9702ZM20.3194 29.5025L19.9259 29.4346L19.7293 30.574L19.9562 30.6116L20.0394 30.1364L20.0924 30.1439C20.1454 30.1514 20.1832 30.1665 20.2059 30.174C20.2286 30.1891 20.2438 30.2118 20.2665 30.2344C20.274 30.257 20.2967 30.2947 20.3194 30.3476V29.993C20.2967 29.993 20.274 29.9854 20.2438 29.9854L20.0773 29.9552L20.1227 29.6684L20.3042 29.6987C20.3119 29.6987 20.3194 29.6987 20.3194 29.6987V29.5025Z" fill="#003399"/>
<path fill-rule="evenodd" clip-rule="evenodd" d="M56.3774 28.0914V25.9637H57.3155V22.2211L56.3774 24.0924V19.4218H60.0619L61 30.1815H57.3155V28.0914H56.3774ZM56.3774 19.4218V24.0924L55.4393 25.9637H56.3774V28.0914H54.6071L53.8808 30.0683H51.5959V27.6085L54.1456 22.123H53.6236L55.0761 19.4218H56.3774ZM51.5959 23.0059L52.7383 20.3046L51.5959 19.6709V23.0059ZM42.5096 21.9722C42.5625 21.6628 42.5625 21.361 42.5096 21.0743V21.9722ZM51.5959 19.6709V23.0059L51.4447 23.368C49.1901 21.7608 45.8611 23.2247 45.672 24.9223C45.4829 26.6956 46.8371 28.1292 50.2946 27.0577L49.1068 30.2268C44.5448 30.7322 42.7745 28.9289 42.5096 26.8238V25.6316C42.5777 25.0808 42.7214 24.5451 42.9182 24.0472C45.1651 18.4787 48.8119 19.7311 50.1963 19.6256L50.4006 19.0068L51.5959 19.6709ZM51.5959 27.6085L50.4535 30.0683H51.5959V27.6085ZM38.4091 30.0004C40.8527 29.5175 43.251 26.5899 40.8452 24.2584C41.7833 23.7604 42.3659 22.8625 42.5096 21.9722V21.0743C42.3432 20.1461 41.6244 19.3917 40.2702 19.3691L38.4091 19.3313V21.3987H39.1807C40.0053 21.3987 39.8995 23.5265 38.8706 23.5265H38.4091V25.1563C39.5212 25.3676 39.1278 26.9068 38.4091 27.3821V30.0004ZM42.5096 25.6316V26.8238C42.4642 26.4314 42.4642 26.0314 42.5096 25.6316ZM35.1861 19.2634L33.6805 22.1758L34.3538 22.123L32.5381 30.0683H37.7357C37.9626 30.0683 38.1821 30.0457 38.4091 30.0004V27.3821C38.2804 27.4727 38.1367 27.5254 37.9929 27.5254H36.1242L36.7446 25.1337H38.1442C38.2426 25.1337 38.3333 25.1412 38.4091 25.1563V23.5265H37.1078L37.6297 21.3987H38.4091V19.3313L35.1861 19.2634Z" fill="#003399"/>
</g>
<defs>
<clipPath id="clip0_223_647">
<rect width="46" height="15" fill="white" transform="translate(15 17)"/>
</clipPath>
</defs>
</svg>
