<svg width="75" height="50" viewBox="0 0 75 50" fill="none" xmlns="http://www.w3.org/2000/svg">
<rect x="0.5" y="0.5" width="74" height="49" rx="4.5" stroke="#E1E1E1"/>
<path fill-rule="evenodd" clip-rule="evenodd" d="M31.0996 17.0005C31.5777 17.3222 32.064 17.8099 32.064 18.2813V26.5874C32.064 27.0527 31.6176 27.7109 31.211 27.9733C32.6452 27.9733 34.0794 27.9733 35.5138 27.9733C38.2977 27.8603 39.9863 26.8726 40.1882 24.8017C40.3298 23.3492 39.5488 22.2195 37.6302 21.5826C38.5874 21.2247 39.102 20.4452 39.1491 19.3701C39.2298 17.5208 37.0397 17.0005 35.6622 17.0005H31.0996V17.0005ZM33.7703 21.448V17.9848H35.0908C36.5889 17.9848 37.2946 18.7072 37.2943 19.7959C37.2941 20.8847 36.2812 21.448 35.017 21.448H33.7703ZM35.178 26.916H33.7703V22.4322H35.3654C37.7416 22.4322 38.4604 23.8363 38.3329 24.984C38.2056 26.1317 37.2018 26.916 35.178 26.916ZM43.9769 17.0005H41.6388C42.1587 17.5691 42.3856 17.8677 42.3856 18.749V26.3185C42.3856 27.1905 41.9922 27.7255 41.4282 28.1041H44.5393C44.0773 27.827 43.5801 27.283 43.5801 26.2984V19.6113C45.1517 21.6747 46.7234 23.7378 48.2952 25.801C49.1862 26.9467 50.2194 27.9178 51.4241 28.6785V18.7091C51.4241 17.7108 51.8337 17.3299 52.3817 17.0005H49.3484C49.8983 17.4013 50.1897 17.8541 50.1897 18.6694V25.3456L43.9769 17.0005V17.0005ZM54.1033 28.1041C54.7326 27.6937 55.0526 27.2123 55.0526 26.5873V18.6587C55.0526 17.7212 54.7773 17.5092 54.2374 17.0005H57.8282C57.2085 17.3433 56.7736 18.0434 56.7736 18.6587V26.5655C56.7736 27.1722 57.1389 27.7278 57.6344 28.1041H54.1033Z" fill="#007697"/>
<path fill-rule="evenodd" clip-rule="evenodd" d="M17 17.0005H20.4663C20.2852 17.3058 20.1481 17.9922 20.4986 19.534C20.8101 20.9044 21.7111 22.334 22.651 23.464L21.47 24.4169L17 18.8974V17.0005V17.0005ZM22.0619 17.0005H28.164V18.4537C27.6921 18.1826 26.8312 17.9206 25.5675 18.4174C23.5282 19.2191 23.3535 21.5666 23.3535 21.5666C22.2254 20.2274 21.4834 18.0319 22.0619 17.0005ZM28.164 20.3812V24.7063C26.7774 25.2234 24.8325 23.8787 24.344 22.2823C23.6356 19.9683 25.3052 19.1331 26.4995 19.3622C27.3922 19.5334 27.9104 20.0562 28.164 20.3812ZM28.164 25.4163V27.972H24.4241L25.1739 27.3672C24.6847 27.4258 23.7235 27.1997 23.2556 26.6217L21.9391 24.9962L23.1427 24.0252C23.8822 24.8263 24.5866 25.4019 24.9848 25.5745C25.8375 25.9442 26.798 26.1227 28.164 25.4163ZM22.3357 27.972H18.2502L20.7957 25.9184C21.004 26.1756 21.2052 26.4242 21.3962 26.6602C21.771 27.1231 22.0859 27.5803 22.3357 27.972ZM17.0629 27.972H17V21.2316C17.9722 22.432 19.2141 23.9655 20.3266 25.3392L17.0629 27.972Z" fill="#EC6722"/>
<path fill-rule="evenodd" clip-rule="evenodd" d="M55.63 31.138L55.8397 31.1076C55.852 31.1865 55.883 31.2472 55.9385 31.2955C55.9941 31.3382 56.0683 31.3623 56.1669 31.3623C56.2595 31.3623 56.3335 31.3382 56.3829 31.3016C56.4261 31.2654 56.4508 31.2168 56.4508 31.1622C56.4508 31.1197 56.4323 31.0833 56.3891 31.053C56.3583 31.0348 56.2842 31.0105 56.1731 30.9864C56.0188 30.9439 55.9077 30.9135 55.852 30.8832C55.7904 30.8529 55.7409 30.8165 55.7101 30.7679C55.6793 30.7194 55.667 30.6648 55.667 30.6043C55.667 30.5496 55.6793 30.4951 55.7041 30.4525C55.7286 30.404 55.7657 30.3676 55.8089 30.3373C55.8397 30.313 55.8892 30.2887 55.9447 30.2767C56.0003 30.2585 56.062 30.2464 56.1237 30.2464C56.2225 30.2464 56.3088 30.2644 56.3829 30.2887C56.4569 30.3192 56.5126 30.3555 56.5496 30.404C56.5804 30.4525 56.605 30.5133 56.6235 30.5921L56.4138 30.6223C56.4014 30.5557 56.3768 30.5072 56.3335 30.4708C56.2903 30.4404 56.2225 30.4222 56.1422 30.4222C56.0435 30.4222 55.9755 30.4343 55.9323 30.4647C55.8892 30.5011 55.8707 30.5375 55.8707 30.58C55.8707 30.6043 55.883 30.6285 55.8954 30.6526C55.9138 30.671 55.9385 30.6892 55.9755 30.7073C56.0003 30.7135 56.062 30.7315 56.1669 30.7619C56.315 30.7983 56.4199 30.8286 56.4756 30.859C56.5373 30.8832 56.5865 30.9196 56.6175 30.9682C56.6484 31.0105 56.6668 31.0712 56.6668 31.144C56.6668 31.2107 56.6484 31.2775 56.605 31.3382C56.5681 31.3987 56.5064 31.4473 56.4261 31.4837C56.3521 31.5142 56.2657 31.5322 56.1669 31.5322C56.0003 31.5322 55.8769 31.4958 55.7966 31.4291C55.7101 31.3623 55.6546 31.2654 55.63 31.138ZM57.3952 30.7922C57.5371 30.774 57.642 30.7497 57.716 30.7255C57.716 30.6951 57.716 30.6771 57.716 30.671C57.716 30.5861 57.6977 30.5253 57.6543 30.489C57.6049 30.4465 57.5248 30.4222 57.4137 30.4222C57.4075 30.4222 57.4013 30.4222 57.3952 30.4222C57.3087 30.4222 57.2407 30.4404 57.1976 30.4708C57.1483 30.5072 57.1111 30.5678 57.0926 30.6526L56.8829 30.6285C56.9014 30.5375 56.9322 30.4708 56.9753 30.4162C57.0187 30.3615 57.0803 30.3192 57.1667 30.2948C57.2347 30.2705 57.3087 30.2523 57.3952 30.2523C57.4137 30.2464 57.4322 30.2464 57.4445 30.2464C57.5556 30.2464 57.642 30.2644 57.7037 30.2887C57.7716 30.313 57.821 30.3435 57.8519 30.3797C57.8828 30.4162 57.9074 30.4647 57.9197 30.5193C57.9259 30.5557 57.9321 30.6223 57.9321 30.7135V30.9864C57.9321 31.1804 57.9321 31.3078 57.9444 31.3564C57.9505 31.4048 57.9692 31.4594 58 31.5019H57.7778C57.7531 31.4594 57.7408 31.411 57.7345 31.3503C57.6543 31.4171 57.5802 31.4655 57.5063 31.4898C57.4691 31.5019 57.4322 31.5141 57.3952 31.5201C57.358 31.5261 57.3149 31.5322 57.2717 31.5322C57.1359 31.5322 57.031 31.4958 56.9569 31.4351C56.8829 31.3685 56.8459 31.2835 56.8459 31.1804C56.8459 31.1197 56.8644 31.0651 56.889 31.0167C56.9199 30.9682 56.9507 30.9257 57 30.8953C57.0433 30.865 57.0926 30.8407 57.1483 30.8286C57.1914 30.8165 57.2532 30.8043 57.3395 30.7983C57.358 30.7922 57.3766 30.7922 57.3952 30.7922ZM57.3952 31.3623C57.4506 31.3564 57.5001 31.3382 57.5432 31.3139C57.6049 31.2835 57.6543 31.235 57.6852 31.1743C57.7037 31.1258 57.716 31.053 57.716 30.9621V30.8893C57.642 30.9196 57.5371 30.9439 57.3952 30.9621C57.389 30.9621 57.3766 30.9682 57.3703 30.9682C57.284 30.9803 57.2224 30.9923 57.1852 31.0105C57.1483 31.0228 57.1236 31.0471 57.1051 31.0773C57.0803 31.1076 57.0741 31.138 57.0741 31.1743C57.0741 31.229 57.0926 31.2775 57.1359 31.3139C57.1791 31.3503 57.2407 31.3685 57.3272 31.3685C57.352 31.3685 57.3703 31.3685 57.3952 31.3623ZM17.0674 31.5019V29.8096H17.4129L17.8203 31.0105C17.8574 31.1197 17.8882 31.2047 17.9005 31.2593C17.9253 31.1986 17.9561 31.1076 17.9931 30.9864L18.4066 29.8096H18.7153V31.5019H18.4931V30.0886L17.9931 31.5019H17.7894L17.2896 30.0644V31.5019H17.0674ZM20.3878 31.5019V29.8096H20.6039V31.5019H20.3878ZM19.5609 30.774H19.9126C19.9002 30.671 19.8756 30.5921 19.8324 30.5375C19.7645 30.4586 19.6782 30.4222 19.5732 30.4222C19.567 30.4222 19.567 30.4222 19.5609 30.4222C19.4682 30.4222 19.388 30.4525 19.3263 30.5133C19.2584 30.58 19.2214 30.6648 19.2152 30.774H19.5609ZM19.5609 31.3623C19.567 31.3623 19.5732 31.3623 19.5794 31.3623C19.6597 31.3623 19.7213 31.3382 19.7768 31.3016C19.8324 31.2593 19.8756 31.1986 19.9126 31.1076L20.1286 31.1319C20.0916 31.2593 20.03 31.3564 19.9372 31.4291C19.8447 31.4958 19.7213 31.5322 19.5794 31.5322C19.5732 31.5322 19.567 31.5322 19.5609 31.5322C19.388 31.5261 19.246 31.4715 19.1472 31.3623C19.0361 31.2532 18.9868 31.1015 18.9868 30.9014C18.9868 30.6951 19.0361 30.5314 19.1472 30.4222C19.2522 30.3069 19.3942 30.2523 19.5609 30.2464C19.567 30.2464 19.567 30.2464 19.567 30.2464C19.7337 30.2464 19.8694 30.3069 19.9744 30.4162C20.0855 30.5253 20.1348 30.683 20.1348 30.8893C20.1348 30.9014 20.1348 30.9196 20.1348 30.9439H19.5609H19.2029C19.209 31.0773 19.2522 31.1804 19.3201 31.2532C19.388 31.32 19.4682 31.3564 19.5609 31.3623ZM22.258 31.9751L22.2333 31.781C22.2826 31.793 22.3198 31.7991 22.3568 31.7991C22.3999 31.7991 22.437 31.793 22.4678 31.7748C22.4986 31.7626 22.5172 31.7385 22.5357 31.7082C22.5543 31.69 22.5728 31.6414 22.6036 31.5565C22.6036 31.5443 22.6098 31.5261 22.6221 31.508L22.1469 30.2767H22.3752L22.6345 30.9864C22.6714 31.0773 22.7024 31.1743 22.7271 31.2714C22.7517 31.1743 22.7764 31.0833 22.8135 30.9923L23.0789 30.2767H23.2888L22.8135 31.5261C22.7641 31.6596 22.7271 31.7505 22.6962 31.8051C22.6591 31.8719 22.616 31.9204 22.5666 31.9507C22.5172 31.9872 22.4617 31.9993 22.3937 31.9993C22.3506 31.9993 22.3074 31.9932 22.258 31.9751ZM21.4062 30.7922C21.5481 30.774 21.6531 30.7497 21.7272 30.7255C21.7272 30.6951 21.7272 30.6771 21.7272 30.671C21.7272 30.5861 21.7087 30.5253 21.6654 30.489C21.6099 30.4465 21.5296 30.4222 21.4247 30.4222C21.4185 30.4222 21.4124 30.4222 21.4062 30.4222C21.3137 30.4222 21.2519 30.4404 21.2026 30.4708C21.1593 30.5072 21.1223 30.5678 21.0977 30.6526L20.894 30.6285C20.9126 30.5375 20.9434 30.4708 20.9866 30.4162C21.0297 30.3615 21.0915 30.3192 21.1716 30.2948C21.2396 30.2705 21.3199 30.2523 21.4062 30.2523C21.4185 30.2464 21.437 30.2464 21.4557 30.2464C21.5606 30.2464 21.6469 30.2644 21.7149 30.2887C21.7827 30.313 21.8321 30.3435 21.863 30.3797C21.8938 30.4162 21.9186 30.4647 21.9309 30.5193C21.9369 30.5557 21.9369 30.6223 21.9369 30.7135V30.9864C21.9369 31.1804 21.9433 31.3078 21.9556 31.3564C21.9618 31.4048 21.9803 31.4594 22.0049 31.5019H21.7827C21.7642 31.4594 21.7519 31.411 21.7457 31.3503C21.6654 31.4171 21.5914 31.4655 21.5173 31.4898C21.4803 31.5019 21.4433 31.5141 21.4062 31.5201C21.3631 31.5261 21.326 31.5322 21.2828 31.5322C21.147 31.5322 21.042 31.4958 20.968 31.4351C20.894 31.3685 20.8569 31.2835 20.8569 31.1804C20.8569 31.1197 20.8692 31.0651 20.9001 31.0167C20.9249 30.9682 20.9619 30.9257 21.0051 30.8953C21.0545 30.865 21.1039 30.8407 21.1593 30.8286C21.2026 30.8165 21.2642 30.8043 21.3507 30.7983C21.3692 30.7922 21.3877 30.7922 21.4062 30.7922ZM21.4062 31.3623C21.4557 31.3564 21.505 31.3382 21.5543 31.3139C21.6161 31.2835 21.6594 31.235 21.6902 31.1743C21.7149 31.1258 21.7272 31.053 21.7272 30.9621V30.8893C21.6531 30.9196 21.5481 30.9439 21.4062 30.9621C21.3939 30.9621 21.3877 30.9682 21.3816 30.9682C21.2951 30.9803 21.2334 30.9923 21.1965 31.0105C21.1593 31.0228 21.1285 31.0471 21.11 31.0773C21.0915 31.1076 21.0853 31.138 21.0853 31.1743C21.0853 31.229 21.1039 31.2775 21.147 31.3139C21.1903 31.3503 21.2519 31.3685 21.3322 31.3685C21.3569 31.3685 21.3816 31.3685 21.4062 31.3623ZM27.3746 31.5019V29.8096H27.6091L28.5163 31.138V29.8096H28.7324V31.5019H28.4979L27.5968 30.1735V31.5019H27.3746ZM26.1463 31.5019V30.2767H26.3624V31.5019H26.1463ZM26.1463 30.0522V29.8096H26.3624V30.0522H26.1463ZM24.8071 31.5019V30.2767H24.9983V30.4525C25.0909 30.3192 25.2267 30.2464 25.3995 30.2464C25.4736 30.2464 25.5414 30.2644 25.6032 30.2887C25.6649 30.313 25.7143 30.3494 25.7451 30.3919C25.776 30.4343 25.8008 30.489 25.8131 30.5496C25.8193 30.5861 25.8254 30.6526 25.8254 30.7497V31.5019H25.6094V30.7558C25.6094 30.671 25.6032 30.6103 25.5847 30.5678C25.5724 30.5253 25.5414 30.489 25.4983 30.4647C25.4551 30.4404 25.412 30.4283 25.3501 30.4283C25.2637 30.4283 25.1836 30.4586 25.1218 30.5133C25.0538 30.5678 25.023 30.6771 25.023 30.8347V31.5019H24.8071ZM23.9492 30.7922C24.0911 30.774 24.196 30.7497 24.27 30.7255C24.27 30.6951 24.27 30.6771 24.27 30.671C24.27 30.5861 24.2515 30.5253 24.2083 30.489C24.1528 30.4465 24.0726 30.4222 23.9677 30.4222C23.9615 30.4222 23.9553 30.4222 23.9492 30.4222C23.8565 30.4222 23.7886 30.4404 23.7454 30.4708C23.7023 30.5072 23.6653 30.5678 23.6405 30.6526L23.4369 30.6285C23.4554 30.5375 23.4862 30.4708 23.5294 30.4162C23.5727 30.3615 23.6343 30.3192 23.7146 30.2948C23.7826 30.2705 23.8627 30.2523 23.9492 30.2523C23.9615 30.2464 23.98 30.2464 23.9985 30.2464C24.1034 30.2464 24.1899 30.2644 24.2577 30.2887C24.3256 30.313 24.375 30.3435 24.4058 30.3797C24.4368 30.4162 24.4553 30.4647 24.4737 30.5193C24.4799 30.5557 24.4799 30.6223 24.4799 30.7135V30.9864C24.4799 31.1804 24.4861 31.3078 24.4922 31.3564C24.5046 31.4048 24.523 31.4594 24.5479 31.5019H24.3256C24.307 31.4594 24.2885 31.411 24.2825 31.3503C24.2083 31.4171 24.1342 31.4655 24.0603 31.4898C24.0231 31.5019 23.9862 31.5141 23.9492 31.5201C23.9059 31.5261 23.8689 31.5322 23.8257 31.5322C23.6899 31.5322 23.585 31.4958 23.5109 31.4351C23.4369 31.3685 23.3998 31.2835 23.3998 31.1804C23.3998 31.1197 23.4121 31.0651 23.4429 31.0167C23.4677 30.9682 23.5047 30.9257 23.548 30.8953C23.5973 30.865 23.6466 30.8407 23.7023 30.8286C23.7454 30.8165 23.8072 30.8043 23.8874 30.7983C23.912 30.7922 23.9305 30.7922 23.9492 30.7922ZM23.9492 31.3623C23.9985 31.3564 24.048 31.3382 24.0911 31.3139C24.1589 31.2835 24.2022 31.235 24.233 31.1743C24.2577 31.1258 24.27 31.053 24.27 30.9621V30.8893C24.196 30.9196 24.0849 30.9439 23.9492 30.9621C23.9368 30.9621 23.9305 30.9682 23.9245 30.9682C23.838 30.9803 23.7763 30.9923 23.7392 31.0105C23.7023 31.0228 23.6713 31.0471 23.6528 31.0773C23.6343 31.1076 23.622 31.138 23.622 31.1743C23.622 31.229 23.6466 31.2775 23.6899 31.3139C23.7331 31.3503 23.7949 31.3685 23.8751 31.3685C23.8997 31.3685 23.9245 31.3685 23.9492 31.3623ZM29.5965 30.774H29.9482C29.936 30.671 29.9112 30.5921 29.868 30.5375C29.8001 30.4586 29.7138 30.4222 29.6027 30.4222C29.6027 30.4222 29.6027 30.4222 29.5965 30.4222C29.5039 30.4222 29.4236 30.4525 29.3619 30.5133C29.294 30.58 29.257 30.6648 29.2508 30.774H29.5965ZM29.5965 31.3623C29.6027 31.3623 29.6089 31.3623 29.615 31.3623C29.6953 31.3623 29.7569 31.3382 29.8126 31.3016C29.868 31.2593 29.9112 31.1986 29.942 31.1076L30.1643 31.1319C30.1272 31.2593 30.0656 31.3564 29.973 31.4291C29.8804 31.4958 29.7569 31.5322 29.615 31.5322C29.6089 31.5322 29.6027 31.5322 29.5965 31.5322C29.4236 31.5261 29.2816 31.4715 29.1767 31.3623C29.0719 31.2532 29.0163 31.1015 29.0163 30.9014C29.0163 30.6951 29.0719 30.5314 29.1829 30.4222C29.2878 30.3069 29.4299 30.2523 29.5965 30.2464H29.6027C29.7692 30.2464 29.9051 30.3069 30.01 30.4162C30.1149 30.5253 30.1704 30.683 30.1704 30.8893C30.1704 30.9014 30.1704 30.9196 30.1704 30.9439H29.5965H29.2385C29.2447 31.0773 29.2816 31.1804 29.3558 31.2532C29.4176 31.32 29.5039 31.3564 29.5965 31.3623ZM30.9049 31.3321C31.0037 31.3321 31.0838 31.2955 31.1518 31.2228C31.2198 31.1501 31.2506 31.0348 31.2506 30.8772C31.2506 30.7255 31.2136 30.6103 31.1456 30.5375C31.0838 30.4586 31.0037 30.4222 30.9049 30.4222C30.8061 30.4222 30.7321 30.4586 30.6642 30.5314C30.5964 30.6103 30.5656 30.7194 30.5656 30.8711C30.5656 31.0287 30.5964 31.144 30.6642 31.2228C30.726 31.2955 30.8061 31.3321 30.9049 31.3321ZM30.9049 31.8294C30.9913 31.8233 31.0592 31.8051 31.1086 31.7687C31.1641 31.7323 31.1951 31.6779 31.2198 31.6111C31.2259 31.5686 31.2321 31.4776 31.2321 31.3443C31.1456 31.4473 31.0345 31.4958 30.9049 31.5019C30.8987 31.5019 30.8926 31.5019 30.8864 31.5019C30.7136 31.5019 30.584 31.4412 30.4853 31.32C30.3927 31.1986 30.3495 31.053 30.3495 30.8832C30.3495 30.7679 30.368 30.6587 30.4111 30.5618C30.4544 30.4586 30.5161 30.3858 30.5964 30.3312C30.6827 30.2767 30.7753 30.2464 30.8864 30.2464C30.8926 30.2464 30.8987 30.2464 30.9049 30.2464C31.047 30.2523 31.158 30.313 31.2506 30.4222V30.2767H31.448V31.3382C31.448 31.5261 31.4295 31.6657 31.3863 31.7446C31.3493 31.8233 31.2876 31.884 31.2011 31.9325C31.121 31.9751 31.0222 31.9993 30.9049 31.9993C30.8987 31.9993 30.8926 31.9993 30.8802 31.9993C30.7321 31.9993 30.6148 31.969 30.5222 31.9022C30.4296 31.8354 30.3865 31.7385 30.3865 31.6051L30.5964 31.6354C30.6025 31.696 30.6272 31.7446 30.6642 31.7687C30.7198 31.8112 30.7938 31.8294 30.8802 31.8294C30.8926 31.8294 30.8987 31.8294 30.9049 31.8294ZM35.7993 31.5019V29.8096H36.0277V30.6526L36.8794 29.8096H37.1881L36.466 30.4951L37.2189 31.5019H36.9226L36.3054 30.6467L36.0277 30.9196V31.5019H35.7993ZM34.4971 31.5019V31.2654H34.7378V31.5019C34.7378 31.5929 34.7254 31.6596 34.6883 31.7143C34.6575 31.7687 34.6082 31.8112 34.5402 31.8354L34.4847 31.7505C34.5279 31.7323 34.5587 31.7021 34.5835 31.6657C34.602 31.6293 34.6143 31.5747 34.6143 31.5019H34.4971ZM33.9107 31.5019V30.2767H34.1206V31.5019H33.9107ZM33.9107 30.0522V29.8096H34.1206V30.0522H33.9107ZM33.1022 31.5019V30.2767H33.2934V30.4647C33.3429 30.3737 33.386 30.3192 33.4294 30.2887C33.4664 30.2644 33.5157 30.2464 33.565 30.2464C33.633 30.2464 33.7071 30.2705 33.7811 30.313L33.7071 30.5072C33.6576 30.4768 33.6021 30.4647 33.5527 30.4647C33.5096 30.4647 33.4664 30.4768 33.4294 30.5072C33.3922 30.5314 33.3676 30.5678 33.3491 30.6164C33.3244 30.6951 33.3121 30.774 33.3121 30.859V31.5019H33.1022ZM32.2751 30.774H32.6207C32.6146 30.671 32.5899 30.5921 32.5466 30.5375C32.4788 30.4586 32.3862 30.4222 32.2813 30.4222H32.2751C32.1825 30.4222 32.1023 30.4525 32.0344 30.5133C31.9727 30.58 31.9356 30.6648 31.9294 30.774H32.2751ZM32.2751 31.3623C32.2813 31.3623 32.2876 31.3623 32.2936 31.3623C32.3677 31.3623 32.4355 31.3382 32.4912 31.3016C32.5466 31.2593 32.5899 31.1986 32.6207 31.1076L32.8368 31.1319C32.806 31.2593 32.7442 31.3564 32.6455 31.4291C32.553 31.4958 32.4355 31.5322 32.2936 31.5322C32.2876 31.5322 32.2813 31.5322 32.2751 31.5322C32.1023 31.5261 31.9604 31.4715 31.8554 31.3623C31.7505 31.2532 31.695 31.1015 31.695 30.9014C31.695 30.6951 31.7505 30.5314 31.8616 30.4222C31.9665 30.3069 32.1023 30.2523 32.2751 30.2464C32.2751 30.2464 32.2751 30.2464 32.2813 30.2464C32.448 30.2464 32.5838 30.3069 32.6886 30.4162C32.7935 30.5253 32.8492 30.683 32.8492 30.8893C32.8492 30.9014 32.8492 30.9196 32.843 30.9439H32.2751H31.9171C31.9233 31.0773 31.9604 31.1804 32.0344 31.2532C32.0962 31.32 32.1765 31.3564 32.2751 31.3623ZM37.8854 30.774H38.2373C38.225 30.671 38.2003 30.5921 38.157 30.5375C38.0892 30.4586 38.0027 30.4222 37.8916 30.4222C37.8916 30.4222 37.8916 30.4222 37.8854 30.4222C37.7928 30.4222 37.7127 30.4525 37.6509 30.5133C37.5831 30.58 37.546 30.6648 37.5398 30.774H37.8854ZM37.8854 31.3623C37.8916 31.3623 37.8978 31.3623 37.904 31.3623C37.9779 31.3623 38.0459 31.3382 38.1015 31.3016C38.157 31.2593 38.2003 31.1986 38.2311 31.1076L38.4532 31.1319C38.4162 31.2593 38.3545 31.3564 38.2619 31.4291C38.1632 31.4958 38.0459 31.5322 37.904 31.5322C37.8978 31.5322 37.8916 31.5322 37.8854 31.5322C37.7127 31.5261 37.5706 31.4715 37.472 31.3623C37.367 31.2532 37.3114 31.1015 37.3114 30.9014C37.3114 30.6951 37.367 30.5314 37.4781 30.4222C37.5768 30.3069 37.7189 30.2523 37.8854 30.2464H37.8916C38.0582 30.2464 38.194 30.3069 38.299 30.4162C38.4039 30.5253 38.4595 30.683 38.4595 30.8893C38.4595 30.9014 38.4595 30.9196 38.4595 30.9439H37.8854H37.5337C37.5337 31.0773 37.5706 31.1804 37.6448 31.2532C37.7066 31.32 37.7867 31.3564 37.8854 31.3623ZM39.2433 30.2523C39.2557 30.2464 39.2618 30.2464 39.268 30.2464C39.3483 30.2464 39.4161 30.2644 39.4902 30.2948C39.558 30.3253 39.6136 30.3676 39.6568 30.4222C39.7001 30.4768 39.7371 30.5435 39.7617 30.6223C39.7864 30.7012 39.7988 30.7862 39.7988 30.8711C39.7988 31.0833 39.7433 31.2472 39.6383 31.3564C39.5334 31.4715 39.4037 31.5322 39.2557 31.5322C39.2557 31.5322 39.2495 31.5322 39.2433 31.5322C39.1075 31.5261 38.9964 31.4655 38.91 31.3503V31.5019H38.7187V29.8096H38.9285V30.4162C39.0088 30.313 39.1198 30.2523 39.2433 30.2523ZM39.2433 31.3623C39.3358 31.3564 39.4161 31.32 39.4779 31.2411C39.5457 31.1622 39.5828 31.0471 39.5828 30.8893C39.5828 30.7315 39.5519 30.6103 39.484 30.5375C39.4222 30.4586 39.3421 30.4222 39.2495 30.4222C39.2495 30.4222 39.2495 30.4222 39.2433 30.4222C39.1569 30.4222 39.0767 30.4586 39.0088 30.5375C38.9408 30.6164 38.91 30.7315 38.91 30.8832C38.91 31.0287 38.9285 31.1319 38.9718 31.1986C39.0396 31.3078 39.126 31.3623 39.2433 31.3623ZM41.3973 31.5019V30.2767H41.5824V30.4525C41.675 30.3192 41.8108 30.2464 41.9837 30.2464C42.0577 30.2464 42.1257 30.2644 42.1873 30.2887C42.2552 30.313 42.2984 30.3494 42.3294 30.3919C42.3602 30.4343 42.3849 30.489 42.3972 30.5496C42.4034 30.5861 42.4095 30.6526 42.4095 30.7497V31.5019H42.1996V30.7558C42.1996 30.671 42.1873 30.6103 42.1749 30.5678C42.1565 30.5253 42.1257 30.489 42.0823 30.4647C42.0454 30.4404 41.996 30.4283 41.9344 30.4283C41.8479 30.4283 41.7676 30.4586 41.7058 30.5133C41.6381 30.5678 41.6072 30.6771 41.6072 30.8347V31.5019H41.3973ZM40.5332 30.7922C40.6752 30.774 40.7801 30.7497 40.8542 30.7255C40.8542 30.6951 40.8542 30.6771 40.8542 30.671C40.8542 30.5861 40.8356 30.5253 40.7925 30.489C40.7369 30.4465 40.6567 30.4222 40.5517 30.4222C40.5455 30.4222 40.5394 30.4222 40.5332 30.4222C40.4406 30.4222 40.3789 30.4404 40.3295 30.4708C40.2863 30.5072 40.2493 30.5678 40.2247 30.6526L40.021 30.6285C40.0395 30.5375 40.0703 30.4708 40.1136 30.4162C40.1567 30.3615 40.2185 30.3192 40.2987 30.2948C40.3666 30.2705 40.4468 30.2523 40.5332 30.2523C40.5455 30.2464 40.5642 30.2464 40.5827 30.2464C40.6875 30.2464 40.774 30.2644 40.8419 30.2887C40.9097 30.313 40.9592 30.3435 40.99 30.3797C41.0208 30.4162 41.0455 30.4647 41.058 30.5193C41.064 30.5557 41.064 30.6223 41.064 30.7135V30.9864C41.064 31.1804 41.0703 31.3078 41.0826 31.3564C41.0888 31.4048 41.1073 31.4594 41.1319 31.5019H40.9097C40.8912 31.4594 40.8789 31.411 40.8727 31.3503C40.7925 31.4171 40.7183 31.4655 40.6443 31.4898C40.6074 31.5019 40.5702 31.5141 40.5332 31.5201C40.4901 31.5261 40.4529 31.5322 40.4098 31.5322C40.274 31.5322 40.1691 31.4958 40.0951 31.4351C40.021 31.3685 39.9839 31.2835 39.9839 31.1804C39.9839 31.1197 39.9963 31.0651 40.0272 31.0167C40.0518 30.9682 40.0889 30.9257 40.1321 30.8953C40.1814 30.865 40.2309 30.8407 40.2863 30.8286C40.3295 30.8165 40.3913 30.8043 40.4777 30.7983C40.4962 30.7922 40.5147 30.7922 40.5332 30.7922ZM40.5332 31.3623C40.5827 31.3564 40.632 31.3382 40.6752 31.3139C40.7431 31.2835 40.7863 31.235 40.8171 31.1743C40.8419 31.1258 40.8542 31.053 40.8542 30.9621V30.8893C40.7801 30.9196 40.669 30.9439 40.5332 30.9621C40.5209 30.9621 40.5147 30.9682 40.5086 30.9682C40.4221 30.9803 40.3604 30.9923 40.3235 31.0105C40.2863 31.0228 40.2555 31.0471 40.237 31.0773C40.2185 31.1076 40.2124 31.138 40.2124 31.1743C40.2124 31.229 40.2309 31.2775 40.274 31.3139C40.3173 31.3503 40.3789 31.3685 40.4591 31.3685C40.4839 31.3685 40.5086 31.3685 40.5332 31.3623ZM43.2118 31.3321C43.3106 31.3321 43.3909 31.2955 43.4525 31.2228C43.5205 31.1501 43.5513 31.0348 43.5513 30.8772C43.5513 30.7255 43.5205 30.6103 43.4525 30.5375C43.3847 30.4586 43.3044 30.4222 43.2118 30.4222C43.2118 30.4222 43.2118 30.4222 43.2058 30.4222C43.1132 30.4222 43.0329 30.4586 42.9649 30.5314C42.9033 30.6103 42.8663 30.7194 42.8663 30.8711C42.8663 31.0287 42.9033 31.144 42.9649 31.2228C43.0329 31.2955 43.1132 31.3321 43.2118 31.3321ZM43.2118 31.8294C43.2983 31.8233 43.3662 31.8051 43.4155 31.7687C43.465 31.7323 43.502 31.6779 43.5205 31.6111C43.5328 31.5686 43.539 31.4776 43.539 31.3443C43.4465 31.4473 43.3414 31.4958 43.2118 31.5019C43.2058 31.5019 43.1995 31.5019 43.1933 31.5019C43.0205 31.5019 42.8848 31.4412 42.7922 31.32C42.6997 31.1986 42.6502 31.053 42.6502 30.8832C42.6502 30.7679 42.6749 30.6587 42.7182 30.5618C42.7613 30.4586 42.823 30.3858 42.9033 30.3312C42.9836 30.2767 43.0824 30.2464 43.1933 30.2464C43.1995 30.2464 43.2058 30.2464 43.2118 30.2464C43.3477 30.2523 43.465 30.313 43.5575 30.4222V30.2767H43.7551V31.3382C43.7551 31.5261 43.7304 31.6657 43.6934 31.7446C43.6501 31.8233 43.5883 31.884 43.502 31.9325C43.4217 31.9751 43.3291 31.9993 43.2118 31.9993C43.2058 31.9993 43.1933 31.9993 43.1873 31.9993C43.039 31.9993 42.9156 31.969 42.8293 31.9022C42.7367 31.8354 42.6934 31.7385 42.6934 31.6051L42.8971 31.6354C42.9095 31.696 42.9341 31.7446 42.9712 31.7687C43.0267 31.8112 43.0947 31.8294 43.1873 31.8294C43.1933 31.8294 43.2058 31.8294 43.2118 31.8294ZM44.5512 31.3321C44.6499 31.3321 44.7302 31.2955 44.7919 31.2228C44.8598 31.1501 44.8907 31.0348 44.8907 30.8772C44.8907 30.7255 44.8598 30.6103 44.7919 30.5375C44.7241 30.4586 44.6438 30.4222 44.5512 30.4222H44.545C44.4524 30.4222 44.3722 30.4586 44.3043 30.5314C44.2426 30.6103 44.2055 30.7194 44.2055 30.8711C44.2055 31.0287 44.2426 31.144 44.3043 31.2228C44.3722 31.2955 44.4524 31.3321 44.5512 31.3321ZM44.5512 31.8294C44.6376 31.8233 44.7056 31.8051 44.7549 31.7687C44.8044 31.7323 44.8412 31.6779 44.8598 31.6111C44.8722 31.5686 44.8784 31.4776 44.8784 31.3443C44.7857 31.4473 44.6808 31.4958 44.5512 31.5019C44.545 31.5019 44.5389 31.5019 44.5327 31.5019C44.3599 31.5019 44.2242 31.4412 44.1316 31.32C44.0389 31.1986 43.9896 31.053 43.9896 30.8832C43.9896 30.7679 44.0143 30.6587 44.0574 30.5618C44.1007 30.4586 44.1624 30.3858 44.2426 30.3312C44.3228 30.2767 44.4216 30.2464 44.5327 30.2464C44.5389 30.2464 44.545 30.2464 44.5512 30.2464C44.687 30.2523 44.8044 30.313 44.8969 30.4222V30.2767H45.0881V31.3382C45.0881 31.5261 45.0696 31.6657 45.0326 31.7446C44.9895 31.8233 44.9277 31.884 44.8412 31.9325C44.761 31.9751 44.6623 31.9993 44.5512 31.9993C44.545 31.9993 44.5327 31.9993 44.5265 31.9993C44.3784 31.9993 44.255 31.969 44.1685 31.9022C44.0759 31.8354 44.0266 31.7385 44.0328 31.6051L44.2365 31.6354C44.2488 31.696 44.2734 31.7446 44.3105 31.7687C44.3599 31.8112 44.4339 31.8294 44.5265 31.8294C44.5327 31.8294 44.545 31.8294 44.5512 31.8294ZM45.8844 30.7922C46.0263 30.774 46.1374 30.7497 46.2054 30.7255C46.2054 30.6951 46.2054 30.6771 46.2054 30.671C46.2054 30.5861 46.1867 30.5253 46.1498 30.489C46.0941 30.4465 46.0139 30.4222 45.909 30.4222C45.9028 30.4222 45.8905 30.4222 45.8844 30.4222C45.7979 30.4222 45.7301 30.4404 45.6868 30.4708C45.6375 30.5072 45.6065 30.5678 45.582 30.6526L45.3721 30.6285C45.3968 30.5375 45.4276 30.4708 45.4647 30.4162C45.5079 30.3615 45.5757 30.3192 45.656 30.2948C45.7239 30.2705 45.7979 30.2523 45.8844 30.2523C45.9028 30.2464 45.9213 30.2464 45.9399 30.2464C46.0448 30.2464 46.1313 30.2644 46.1991 30.2887C46.267 30.313 46.3102 30.3435 46.3473 30.3797C46.3781 30.4162 46.3966 30.4647 46.409 30.5193C46.4151 30.5557 46.4213 30.6223 46.4213 30.7135V30.9864C46.4213 31.1804 46.4275 31.3078 46.4338 31.3564C46.4461 31.4048 46.4583 31.4594 46.4892 31.5019H46.267C46.2424 31.4594 46.2301 31.411 46.2239 31.3503C46.1436 31.4171 46.0695 31.4655 45.9955 31.4898C45.9647 31.5019 45.9213 31.5141 45.8844 31.5201C45.8474 31.5261 45.8041 31.5322 45.7671 31.5322C45.6251 31.5322 45.5202 31.4958 45.4461 31.4351C45.3783 31.3685 45.3413 31.2835 45.3413 31.1804C45.3413 31.1197 45.3536 31.0651 45.3783 31.0167C45.4091 30.9682 45.4461 30.9257 45.4894 30.8953C45.5325 30.865 45.5882 30.8407 45.6437 30.8286C45.6807 30.8165 45.7486 30.8043 45.8289 30.7983C45.8474 30.7922 45.8659 30.7922 45.8844 30.7922ZM45.8844 31.3623C45.9399 31.3564 45.9893 31.3382 46.0325 31.3139C46.0941 31.2835 46.1436 31.235 46.1744 31.1743C46.1929 31.1258 46.2054 31.053 46.2054 30.9621V30.8893C46.1313 30.9196 46.0263 30.9439 45.8844 30.9621C45.8782 30.9621 45.872 30.9682 45.8597 30.9682C45.7733 30.9803 45.7116 30.9923 45.6745 31.0105C45.6437 31.0228 45.6128 31.0471 45.5942 31.0773C45.5757 31.1076 45.5634 31.138 45.5634 31.1743C45.5634 31.229 45.5882 31.2775 45.6313 31.3139C45.6683 31.3503 45.7363 31.3685 45.8164 31.3685C45.8412 31.3685 45.8659 31.3685 45.8844 31.3623ZM48.0877 31.5019V30.2767H48.2791V30.4525C48.3717 30.3192 48.5013 30.2464 48.6741 30.2464C48.7482 30.2464 48.8222 30.2644 48.884 30.2887C48.9456 30.313 48.9951 30.3494 49.0259 30.3919C49.0567 30.4343 49.0752 30.489 49.0877 30.5496C49.1 30.5861 49.1 30.6526 49.1 30.7497V31.5019H48.8902V30.7558C48.8902 30.671 48.884 30.6103 48.8653 30.5678C48.847 30.5253 48.8222 30.489 48.779 30.4647C48.7359 30.4404 48.6864 30.4283 48.6309 30.4283C48.5383 30.4283 48.4643 30.4586 48.3964 30.5133C48.3286 30.5678 48.2976 30.6771 48.2976 30.8347V31.5019H48.0877ZM47.2236 30.7922C47.3657 30.774 47.4768 30.7497 47.5446 30.7255C47.5446 30.6951 47.5446 30.6771 47.5446 30.671C47.5446 30.5861 47.5261 30.5253 47.4891 30.489C47.4335 30.4465 47.3533 30.4222 47.2484 30.4222C47.2359 30.4222 47.2299 30.4222 47.2236 30.4222C47.1373 30.4222 47.0695 30.4404 47.0262 30.4708C46.9767 30.5072 46.9459 30.5678 46.9212 30.6526L46.7115 30.6285C46.73 30.5375 46.7608 30.4708 46.804 30.4162C46.8471 30.3615 46.9151 30.3192 46.9954 30.2948C47.0632 30.2705 47.1373 30.2523 47.2236 30.2523C47.2422 30.2464 47.2607 30.2464 47.2792 30.2464C47.3842 30.2464 47.4706 30.2644 47.5384 30.2887C47.6002 30.313 47.6496 30.3435 47.6804 30.3797C47.7175 30.4162 47.736 30.4647 47.7483 30.5193C47.7545 30.5557 47.7607 30.6223 47.7607 30.7135V30.9864C47.7607 31.1804 47.7668 31.3078 47.773 31.3564C47.7792 31.4048 47.7977 31.4594 47.8285 31.5019H47.6064C47.5816 31.4594 47.5693 31.411 47.5631 31.3503C47.483 31.4171 47.4088 31.4655 47.3347 31.4898C47.2977 31.5019 47.2607 31.5141 47.2236 31.5201C47.1868 31.5261 47.1434 31.5322 47.1065 31.5322C46.9645 31.5322 46.8594 31.4958 46.7855 31.4351C46.7115 31.3685 46.6743 31.2835 46.6743 31.1804C46.6743 31.1197 46.693 31.0651 46.7175 31.0167C46.7484 30.9682 46.7855 30.9257 46.8286 30.8953C46.8719 30.865 46.9212 30.8407 46.983 30.8286C47.02 30.8165 47.0818 30.8043 47.1683 30.7983C47.1868 30.7922 47.2051 30.7922 47.2236 30.7922ZM47.2236 31.3623C47.2792 31.3564 47.3285 31.3382 47.3718 31.3139C47.4335 31.2835 47.483 31.235 47.5138 31.1743C47.5323 31.1258 47.5446 31.053 47.5446 30.9621V30.8893C47.4706 30.9196 47.3657 30.9439 47.2236 30.9621C47.2176 30.9621 47.2114 30.9682 47.1991 30.9682C47.1126 30.9803 47.0508 30.9923 47.0139 31.0105C46.9767 31.0228 46.952 31.0471 46.9336 31.0773C46.9151 31.1076 46.9027 31.138 46.9027 31.1743C46.9027 31.229 46.9274 31.2775 46.9644 31.3139C47.0077 31.3503 47.0695 31.3685 47.1558 31.3685C47.1805 31.3685 47.1991 31.3685 47.2236 31.3623ZM50.7233 29.8096H50.7602C50.8899 29.8096 50.9948 29.8278 51.0749 29.8643C51.1552 29.8944 51.2169 29.9492 51.2602 30.0219C51.3095 30.0886 51.328 30.1675 51.328 30.2464C51.328 30.313 51.3095 30.3858 51.2725 30.4465C51.2292 30.5133 51.1675 30.5618 51.0873 30.6043C51.1922 30.6346 51.2725 30.683 51.328 30.7558C51.3837 30.8286 51.4145 30.9135 51.4145 31.0105C51.4145 31.0894 51.396 31.1683 51.3651 31.235C51.328 31.3017 51.2849 31.3564 51.2355 31.3926C51.1861 31.4291 51.1244 31.4533 51.0503 31.4776C50.97 31.4958 50.8775 31.5019 50.7664 31.5019H50.7233H50.1122V29.8096H50.7233ZM50.7233 30.5193C50.8158 30.5193 50.8899 30.5133 50.933 30.5011C50.9886 30.4829 51.0318 30.4586 51.0626 30.4162C51.0936 30.3797 51.1059 30.3312 51.1059 30.2705C51.1059 30.216 51.0936 30.1614 51.0626 30.119C51.038 30.0765 50.9948 30.0522 50.9454 30.034C50.9022 30.0219 50.8281 30.0097 50.7233 30.0097C50.7108 30.0097 50.6985 30.0097 50.6861 30.0097H50.3406V30.5193H50.7108C50.7171 30.5193 50.7171 30.5193 50.7233 30.5193ZM50.7233 31.3016H50.7664C50.8404 31.3016 50.896 31.3016 50.9269 31.2955C50.9763 31.2835 51.0195 31.2714 51.0564 31.2472C51.0936 31.229 51.1183 31.1986 51.1429 31.1562C51.1675 31.1137 51.1799 31.0651 51.1799 31.0105C51.1799 30.95 51.1614 30.8953 51.1306 30.8468C51.0936 30.7983 51.0503 30.7679 50.9886 30.7497C50.933 30.7315 50.8467 30.7194 50.7418 30.7194H50.7233H50.3406V31.3016H50.7233ZM53.0377 31.5019V30.2767H53.2291V30.4525C53.3216 30.3192 53.4512 30.2464 53.6241 30.2464C53.7042 30.2464 53.7722 30.2644 53.8338 30.2887C53.8956 30.313 53.945 30.3494 53.9759 30.3919C54.0067 30.4343 54.0314 30.489 54.0438 30.5496C54.0499 30.5861 54.0561 30.6526 54.0561 30.7497V31.5019H53.84V30.7558C53.84 30.671 53.8338 30.6103 53.8153 30.5678C53.803 30.5253 53.7722 30.489 53.729 30.4647C53.6859 30.4404 53.6364 30.4283 53.5808 30.4283C53.4945 30.4283 53.4142 30.4586 53.3462 30.5133C53.2846 30.5678 53.2476 30.6771 53.2476 30.8347V31.5019H53.0377ZM52.1736 30.7922C52.3155 30.774 52.4267 30.7497 52.4946 30.7255C52.5007 30.6951 52.5006 30.6771 52.5006 30.671C52.5006 30.5861 52.4761 30.5253 52.439 30.489C52.3835 30.4465 52.3032 30.4222 52.1983 30.4222C52.1921 30.4222 52.1798 30.4222 52.1736 30.4222C52.0873 30.4222 52.0193 30.4404 51.9762 30.4708C51.9267 30.5072 51.8959 30.5678 51.8712 30.6526L51.6675 30.6285C51.686 30.5375 51.7168 30.4708 51.7601 30.4162C51.8033 30.3615 51.8651 30.3192 51.9452 30.2948C52.0131 30.2705 52.0873 30.2523 52.1736 30.2523C52.1921 30.2464 52.2106 30.2464 52.2292 30.2464C52.3342 30.2464 52.4205 30.2644 52.4884 30.2887C52.5563 30.313 52.6057 30.3435 52.6366 30.3797C52.6674 30.4162 52.6859 30.4647 52.6982 30.5193C52.7045 30.5557 52.7107 30.6223 52.7107 30.7135V30.9864C52.7107 31.1804 52.7167 31.3078 52.723 31.3564C52.7353 31.4048 52.7538 31.4594 52.7785 31.5019H52.5563C52.5378 31.4594 52.5193 31.411 52.5131 31.3503C52.439 31.4171 52.3588 31.4655 52.2909 31.4898C52.2539 31.5019 52.2169 31.5141 52.1736 31.5201C52.1366 31.5261 52.0933 31.5322 52.0563 31.5322C51.9205 31.5322 51.8156 31.4958 51.7416 31.4351C51.6675 31.3685 51.6305 31.2835 51.6305 31.1804C51.6305 31.1197 51.6428 31.0651 51.6675 31.0167C51.6985 30.9682 51.7353 30.9257 51.7786 30.8953C51.8218 30.865 51.8774 30.8407 51.9329 30.8286C51.97 30.8165 52.0378 30.8043 52.1181 30.7983C52.1366 30.7922 52.1551 30.7922 52.1736 30.7922ZM52.1736 31.3623C52.2292 31.3564 52.2785 31.3382 52.3217 31.3139C52.3835 31.2835 52.4328 31.235 52.4638 31.1743C52.4884 31.1258 52.4946 31.053 52.4946 30.9621V30.8893C52.4267 30.9196 52.3155 30.9439 52.1736 30.9621C52.1675 30.9621 52.1613 30.9682 52.149 30.9682C52.0625 30.9803 52.0008 30.9923 51.97 31.0105C51.9329 31.0228 51.9021 31.0471 51.8836 31.0773C51.8651 31.1076 51.8526 31.138 51.8526 31.1743C51.8526 31.229 51.8774 31.2775 51.9205 31.3139C51.9577 31.3503 52.0255 31.3685 52.1058 31.3685C52.1304 31.3685 52.1551 31.3685 52.1736 31.3623ZM54.8585 31.3321C54.951 31.3321 55.0374 31.2955 55.0992 31.2228C55.167 31.1501 55.1979 31.0348 55.1979 30.8772C55.1979 30.7255 55.167 30.6103 55.0992 30.5375C55.0313 30.4586 54.951 30.4222 54.8585 30.4222C54.8522 30.4222 54.8523 30.4222 54.8523 30.4222C54.7597 30.4222 54.6794 30.4586 54.6116 30.5314C54.5437 30.6103 54.5128 30.7194 54.5128 30.8711C54.5128 31.0287 54.5437 31.144 54.6116 31.2228C54.6794 31.2955 54.7597 31.3321 54.8585 31.3321ZM54.8585 31.8294C54.9448 31.8233 55.0066 31.8051 55.0559 31.7687C55.1115 31.7323 55.1485 31.6779 55.167 31.6111C55.1794 31.5686 55.1794 31.4776 55.1794 31.3443C55.0929 31.4473 54.9881 31.4958 54.8585 31.5019C54.8522 31.5019 54.84 31.5019 54.8337 31.5019C54.6609 31.5019 54.5313 31.4412 54.4387 31.32C54.3461 31.1986 54.2968 31.053 54.2968 30.8832C54.2968 30.7679 54.3153 30.6587 54.3586 30.5618C54.4017 30.4586 54.4697 30.3858 54.5498 30.3312C54.6301 30.2767 54.7289 30.2464 54.84 30.2464C54.8462 30.2464 54.8522 30.2464 54.8585 30.2464C54.9941 30.2523 55.1115 30.313 55.2042 30.4222V30.2767H55.3954V31.3382C55.3954 31.5261 55.3769 31.6657 55.3398 31.7446C55.2967 31.8233 55.235 31.884 55.1485 31.9325C55.0682 31.9751 54.9696 31.9993 54.8585 31.9993C54.8462 31.9993 54.84 31.9993 54.8337 31.9993C54.6856 31.9993 54.5622 31.969 54.4697 31.9022C54.3771 31.8354 54.3339 31.7385 54.3401 31.6051L54.5437 31.6354C54.556 31.696 54.5745 31.7446 54.6176 31.7687C54.6671 31.8112 54.7412 31.8294 54.8337 31.8294C54.84 31.8294 54.8462 31.8294 54.8585 31.8294Z" fill="#007697"/>
</svg>
