<svg width="75" height="50" viewBox="0 0 75 50" fill="none" xmlns="http://www.w3.org/2000/svg">
<rect x="0.5" y="0.5" width="74" height="49" rx="4.5" stroke="#E1E1E1"/>
<path fill-rule="evenodd" clip-rule="evenodd" d="M28.9538 14.5511C28.9538 13.1434 30.1163 12.0024 31.5502 12.0024H44.4656C45.8998 12.0024 47.062 13.1434 47.062 14.5511V27.2274C47.062 28.6348 45.8998 29.7758 44.4656 29.7758H31.5502C30.1163 29.7758 28.9538 28.6348 28.9538 27.2274V14.5511ZM32.1127 28.0344C31.3481 28.0344 30.7281 27.4258 30.7281 26.6751V15.1073C30.7281 14.3566 31.3481 13.7483 32.1127 13.7483H33.6925C35.7738 13.7483 37.3151 15.8182 35.984 17.1267L32.1217 20.9226L35.4363 24.3307C37.0434 25.983 35.1616 28.0344 33.3783 28.0344H32.1127ZM37.125 13.7483H38.4599C40.5413 13.7483 42.0828 15.8182 40.7514 17.1267L36.8892 20.9226L43.9892 28.0316L36.4965 28.0302C38.1066 28.0302 39.1229 25.3719 37.3998 23.6112L34.7686 20.9226L37.8318 17.8235C39.4811 16.1545 38.284 14.0075 37.125 13.7483ZM45.2861 26.6751L39.5363 20.9226L42.5993 17.8235C44.2488 16.1545 43.0514 14.0075 41.8927 13.7483H43.8986C44.6634 13.7483 45.2835 14.3566 45.2835 15.1073L45.2861 26.6751ZM24.1719 35.148V36.1837H24.6434C24.8877 36.1837 25.0733 36.1388 25.1995 36.0487C25.3259 35.9589 25.3892 35.8281 25.3892 35.6566C25.3892 35.4869 25.3314 35.3598 25.2153 35.2751C25.0995 35.1904 24.9269 35.148 24.6972 35.148H24.1719ZM24.1719 33.3811V34.3663H24.5358C24.7889 34.3663 24.9783 34.3242 25.1038 34.2404C25.2292 34.1566 25.292 34.0286 25.292 33.8566C25.292 33.7013 25.233 33.5832 25.1149 33.5024C24.9967 33.4217 24.8226 33.3811 24.5929 33.3811H24.1719ZM23 32.5869H24.8396C25.3833 32.5869 25.792 32.6825 26.066 32.8742C26.3401 33.0656 26.4771 33.3506 26.4771 33.7295C26.4771 33.9842 26.4052 34.1957 26.2618 34.3645C26.1186 34.533 25.9099 34.6545 25.6358 34.7293C25.9434 34.7851 26.18 34.9034 26.3453 35.0846C26.5108 35.2654 26.5934 35.4967 26.5934 35.7779C26.5934 36.1916 26.4429 36.4983 26.1415 36.6978C25.8401 36.8973 25.3757 36.9974 24.7479 36.9974H23V32.5869V32.5869ZM29.1594 33.5705L28.5776 35.2242H29.7222L29.1594 33.5705ZM28.4606 32.5869H29.9057L31.6066 36.9974H30.3262L30.0068 36.0631H28.2771L27.9422 36.9974H26.7571L28.4606 32.5869ZM31.8658 32.5869H33.3608L34.6623 35.2311C34.7066 35.3203 34.7583 35.4439 34.8172 35.6022C34.8762 35.7603 34.9415 35.9543 35.013 36.1842C34.9752 35.9668 34.9472 35.7673 34.9292 35.5851C34.9116 35.4031 34.9024 35.2365 34.9024 35.0855V32.5869H35.9837V36.9974H34.4948L33.1429 34.2566C33.0797 34.1305 33.0217 33.9934 32.9691 33.8455C32.9165 33.6973 32.8679 33.5367 32.8238 33.3626C32.8658 33.6256 32.8969 33.8673 32.917 34.0876C32.937 34.3078 32.9472 34.5017 32.9472 34.6696V36.9974H31.8658V32.5869ZM36.8344 32.5869H38.0321V34.4925L39.4236 32.5869H40.7644L39.1137 34.6136L40.9328 36.9974H39.4446L38.0321 34.952V36.9974H36.8344V32.5869ZM44.4186 35.148V36.1837H44.8901C45.1347 36.1837 45.32 36.1388 45.4465 36.0487C45.5726 35.9589 45.6358 35.8281 45.6358 35.6566C45.6358 35.4869 45.5781 35.3598 45.462 35.2751C45.3462 35.1904 45.1736 35.148 44.9439 35.148H44.4186ZM44.4186 33.3811V34.3663H44.7825C45.0356 34.3663 45.225 34.3242 45.3505 34.2404C45.4759 34.1566 45.5389 34.0286 45.5389 33.8566C45.5389 33.7013 45.4797 33.5832 45.3616 33.5024C45.2436 33.4217 45.0696 33.3811 44.8396 33.3811H44.4186ZM43.2467 32.5869H45.0863C45.63 32.5869 46.0389 32.6825 46.3127 32.8742C46.5868 33.0656 46.7236 33.3506 46.7236 33.7295C46.7236 33.9842 46.6519 34.1957 46.5087 34.3645C46.3653 34.533 46.1566 34.6545 45.8825 34.7293C46.1903 34.7851 46.4267 34.9034 46.5922 35.0846C46.7575 35.2654 46.8403 35.4967 46.8403 35.7779C46.8403 36.1916 46.6896 36.4983 46.3882 36.6978C46.087 36.8973 45.6224 36.9974 44.9946 36.9974H43.2467V32.5869ZM48.7196 33.3622V34.4934H49.1401C49.3991 34.4934 49.5934 34.4473 49.7231 34.355C49.8526 34.2629 49.9175 34.1247 49.9175 33.9402C49.9175 33.7413 49.8453 33.5953 49.7009 33.502C49.5566 33.4087 49.3285 33.3622 49.0167 33.3622H48.7196ZM47.5476 32.5869H49.3328C49.9276 32.5869 50.3693 32.6816 50.6573 32.871C50.9453 33.0603 51.0894 33.3485 51.0894 33.7355C51.0894 34.0212 51.0134 34.2561 50.8613 34.4404C50.7094 34.6244 50.4896 34.7476 50.2026 34.8096C50.4389 34.8946 50.629 35.1355 50.7726 35.5325L51.3094 36.9974H50.0599L49.6646 35.7902C49.6014 35.5957 49.5151 35.4612 49.4054 35.3867C49.296 35.3122 49.1252 35.2751 48.8934 35.2751H48.7196V36.9974H47.5476V32.5869ZM51.8021 32.5869H53V36.9974H51.8021V32.5869Z" fill="#1F4396"/>
</svg>
