<svg width="50" height="50" viewBox="0 0 50 50" fill="none" xmlns="http://www.w3.org/2000/svg">
<rect x="1" y="1" width="48" height="48" rx="24" stroke="#474747" stroke-width="2"/>
<path d="M29.37 25.7898C29.2479 25.7412 29.1174 25.7172 28.9859 25.719C28.8545 25.7208 28.7247 25.7486 28.604 25.8006C28.4833 25.8526 28.374 25.9278 28.2824 26.0221C28.1908 26.1163 28.1186 26.2277 28.07 26.3498C28.0214 26.4719 27.9974 26.6024 27.9992 26.7339C28.001 26.8653 28.0288 26.9951 28.0808 27.1158C28.1328 27.2365 28.208 27.3458 28.3023 27.4374C28.3965 27.529 28.5079 27.6012 28.63 27.6498C30.09 28.2298 31 29.1298 31 29.9998C31 31.4198 28.54 32.9998 25 32.9998C21.46 32.9998 19 31.4198 19 29.9998C19 29.1298 19.91 28.2298 21.37 27.6498C21.6167 27.5517 21.8142 27.3596 21.9192 27.1158C22.0243 26.872 22.0281 26.5965 21.93 26.3498C21.8319 26.1031 21.6398 25.9056 21.396 25.8006C21.1522 25.6955 20.8767 25.6917 20.63 25.7898C18.36 26.6898 17 28.2598 17 29.9998C17 32.7998 20.51 34.9998 25 34.9998C29.49 34.9998 33 32.7998 33 29.9998C33 28.2598 31.64 26.6898 29.37 25.7898ZM24 22.8598V29.9998C24 30.265 24.1054 30.5194 24.2929 30.7069C24.4804 30.8944 24.7348 30.9998 25 30.9998C25.2652 30.9998 25.5196 30.8944 25.7071 30.7069C25.8946 30.5194 26 30.265 26 29.9998V22.8598C26.9427 22.6164 27.7642 22.0376 28.3106 21.2318C28.857 20.426 29.0908 19.4486 28.9681 18.4828C28.8454 17.517 28.3747 16.6291 27.6442 15.9855C26.9137 15.3419 25.9736 14.9868 25 14.9868C24.0264 14.9868 23.0863 15.3419 22.3558 15.9855C21.6253 16.6291 21.1546 17.517 21.0319 18.4828C20.9092 19.4486 21.143 20.426 21.6894 21.2318C22.2358 22.0376 23.0573 22.6164 24 22.8598ZM25 16.9998C25.3956 16.9998 25.7822 17.1171 26.1111 17.3369C26.44 17.5566 26.6964 17.869 26.8478 18.2344C26.9991 18.5999 27.0387 19.002 26.9616 19.39C26.8844 19.7779 26.6939 20.1343 26.4142 20.414C26.1345 20.6937 25.7781 20.8842 25.3902 20.9614C25.0022 21.0385 24.6001 20.9989 24.2346 20.8476C23.8692 20.6962 23.5568 20.4398 23.3371 20.1109C23.1173 19.782 23 19.3954 23 18.9998C23 18.4694 23.2107 17.9607 23.5858 17.5856C23.9609 17.2105 24.4696 16.9998 25 16.9998Z" fill="#474747"/>
</svg>
